<?xml version="1.0" encoding="UTF-8" standalone="no"?>
<!DOCTYPE svg PUBLIC "-//W3C//DTD SVG 20010904//EN"
"http://www.w3.org/TR/2001/REC-SVG-20010904/DTD/svg10.dtd">
<!-- Created with Inkscape (http://www.inkscape.org/) -->
<svg
   version="1"
   x="0.00000000"
   y="0.00000000"
   width="308.237488"
   height="298.187500"
   viewBox="0 0 42.8 38.1"
   id="svg548"
   xmlns="http://www.w3.org/2000/svg"
   xmlns:sodipodi="http://sodipodi.sourceforge.net/DTD/sodipodi-0.dtd"
   xmlns:inkscape="http://www.inkscape.org/namespaces/inkscape"
   xmlns:xlink="http://www.w3.org/1999/xlink"
   sodipodi:version="0.32"
   inkscape:version="0.37"
   sodipodi:docname="Applications.svg"
   sodipodi:docbase="/home/khayber/Choices/Icons">
  <sodipodi:namedview
     id="base"
     pagecolor="#ffffff"
     bordercolor="#666666"
     borderopacity="1.0"
     inkscape:pageopacity="0.0"
     inkscape:pageshadow="2"
     inkscape:zoom="0.43415836"
     inkscape:cx="261.289193"
     inkscape:cy="141.452630"
     inkscape:window-width="640"
     inkscape:window-height="498"
     inkscape:window-x="223"
     inkscape:window-y="222" />
  <defs
     id="defs600">
    <radialGradient
       cx="7.39109993"
       cy="9.18360043"
       fx="7.39109993"
       fy="9.18360043"
       r="28.9214993"
       id="aigrd1"
       gradientUnits="userSpaceOnUse"
       spreadMethod="pad">
      <stop
         style="stop-color:#3f3f3f;stop-opacity:1;"
         offset="0.00000000"
         id="stop553" />
      <stop
         style="stop-color:#000000;stop-opacity:1;"
         offset="1.00000000"
         id="stop554" />
    </radialGradient>
    <linearGradient
       x1="6.26459980"
       y1="7.92719984"
       x2="29.5377007"
       y2="29.0842991"
       id="aigrd2"
       gradientUnits="userSpaceOnUse"
       spreadMethod="pad">
      <stop
         style="stop-color:#ffffff;stop-opacity:1;"
         offset="0.00000000"
         id="stop557" />
      <stop
         style="stop-color:#e4e4e4;stop-opacity:1;"
         offset="1.00000000"
         id="stop558" />
    </linearGradient>
    <radialGradient
       cx="7.39109993"
       cy="2.23679996"
       fx="7.39109993"
       fy="2.23679996"
       r="21.8507004"
       id="aigrd3"
       gradientUnits="userSpaceOnUse"
       spreadMethod="pad">
      <stop
         style="stop-color:#828282;stop-opacity:1;"
         offset="0.00000000"
         id="stop561" />
      <stop
         style="stop-color:#333333;stop-opacity:1;"
         offset="1.00000000"
         id="stop562" />
    </radialGradient>
    <linearGradient
       x1="1.48780000"
       y1="12.4834003"
       x2="27.7073994"
       y2="33.5647011"
       id="aigrd4"
       gradientUnits="userSpaceOnUse"
       spreadMethod="pad">
      <stop
         style="stop-color:#b64545;stop-opacity:1;"
         offset="0.00000000"
         id="stop565" />
      <stop
         style="stop-color:#b60000;stop-opacity:1;"
         offset="1.00000000"
         id="stop566" />
    </linearGradient>
    <linearGradient
       x1="0.47409999"
       y1="2.10689998"
       x2="28.4526005"
       y2="28.5412006"
       id="aigrd5"
       gradientUnits="userSpaceOnUse"
       spreadMethod="pad">
      <stop
         style="stop-color:#787896;stop-opacity:1;"
         offset="0.00000000"
         id="stop569" />
      <stop
         style="stop-color:#000068;stop-opacity:1;"
         offset="1.00000000"
         id="stop570" />
    </linearGradient>
  </defs>
  <g
     style="font-size:12;stroke:#000000;"
     id="Layer_x0020_3">
    <path
       d="M 5 25.1 L 0 31.9 C -0.8 33.2 0.3 34.6 2.2 34.5 L 21.5 34.5 C 29.9 42.9 43.7 35.5 40.7 31.6 L 35.2 23.8 L 5 25.1 z "
       style="opacity:0.35;stroke:none;"
       id="path550" />
  </g>
  <path
     d="M 29.6 1 L 5.9 1 L 3.2 5.5 L 3.2 31.1 L 32.2 31.1 L 32.2 5.5 L 29.6 1 z "
     style="font-size:12;fill:url(#aigrd1);stroke:#000000;stroke-width:2.0553;stroke-linecap:round;stroke-linejoin:round;"
     id="path555" />
  <path
     d="M 32.2 31.1 L 3.2 31.1 L 3.2 5.5 L 32.2 5.5 L 32.2 31.1 z "
     style="font-size:12;fill:url(#aigrd2);"
     id="path559" />
  <path
     d="M 5.9 1 L 3.2 5.5 L 32.2 5.5 L 29.6 1 L 5.9 1 z "
     style="font-size:12;fill:url(#aigrd3);"
     id="path563" />
  <path
     d="M 14.3 31.1 L 3.2 31.1 L 3.2 5.5 L 14.3 5.5 L 14.3 31.1 z "
     style="font-size:12;fill:url(#aigrd4);"
     id="path567" />
  <path
     d="M 32.2 31.1 L 14.3 31.1 L 14.3 16.1 L 32.2 16.1 L 32.2 31.1 z "
     style="font-size:12;fill:url(#aigrd5);"
     id="path571" />
  <path
     d="M 32.2 5.5 L 3.2 5.5 L 3.2 31.1 L 3.8 20.7 L 3.8 6.2 L 32.2 5.4 L 32.2 5.5 z "
     style="font-size:12;opacity:0.51;fill:#ffffff;"
     id="path576" />
  <path
     d="M 29.6 1 L 5.9 1 L 3.2 5.5 L 4 5.4 L 6.3 1.5 L 29.6 1 z "
     style="font-size:12;opacity:0.51;fill:#ffffff;"
     id="path577" />
  <path
     d="M 32.2 5.5 L 32.2 31.1 L 3.2 31.1 L 31.8 30.5 L 31.8 6.3 L 32.2 5.5 z "
     style="font-size:12;opacity:0.26;"
     id="path578" />
  <g
     style="font-size:12;stroke:#000000;"
     id="Layer_x0020_4">
    <path
       d="M 23.8 20.7 C 21.8 22.4 20.8 24.6 20.8 27 C 20.8 29.4 21.9 31.7 23.8 33.3 C 25.7 34.9 28.2 35.8 30.9 35.8 C 33.6 35.8 36.1 34.9 38 33.3 C 40 31.6 41 29.4 41 27 C 41 24.6 39.9 22.3 38 20.7 C 36.1 19.1 33.6 18.2 30.9 18.2 C 28.2 18.2 25.7 19.1 23.8 20.7 L 23.8 20.7 z M 28.7 27 C 28.7 26.1 29.7 25.4 30.9 25.4 C 32.1 25.4 33.1 26.2 33.1 27 C 33.1 27.9 32.1 28.6 30.9 28.6 C 29.7 28.6 28.7 27.8 28.7 27 L 28.7 27 z "
       style="stroke:none;"
       id="path580" />
    <linearGradient
       x1="28.9321003"
       y1="21.9473000"
       x2="32.3964005"
       y2="31.1350002"
       id="aigrd6"
       gradientUnits="userSpaceOnUse"
       spreadMethod="pad">
      <stop
         style="stop-color:#ffffff;stop-opacity:1;"
         offset="0.00000000"
         id="stop582" />
      <stop
         style="stop-color:#9b9b9b;stop-opacity:1;"
         offset="1.00000000"
         id="stop583" />
    </linearGradient>
    <path
       d="M 24.2 21.2 C 22.4 22.7 21.4 24.8 21.4 27 C 21.4 29.2 22.4 31.3 24.2 32.8 C 26 34.3 28.3 35.1 30.8 35.1 C 33.3 35.1 35.7 34.3 37.4 32.8 C 39.2 31.3 40.2 29.2 40.2 27 C 40.2 24.8 39.2 22.7 37.4 21.2 C 35.6 19.7 33.3 18.9 30.8 18.9 C 28.3 18.9 25.9 19.7 24.2 21.2 L 24.2 21.2 z M 28.3 27 C 28.3 25.9 29.4 25 30.8 25 C 32.2 25 33.3 25.9 33.3 27 C 33.3 28.1 32.2 29 30.8 29 C 29.4 29 28.3 28.1 28.3 27 L 28.3 27 z "
       style="fill:url(#aigrd6);stroke:none;"
       id="path584" />
    <linearGradient
       x1="32.4468002"
       y1="35.8311005"
       x2="29.0893993"
       y2="18.0566998"
       id="aigrd7"
       gradientUnits="userSpaceOnUse"
       spreadMethod="pad">
      <stop
         style="stop-color:#ffffff;stop-opacity:1;"
         offset="0.00000000"
         id="stop586" />
      <stop
         style="stop-color:#858585;stop-opacity:1;"
         offset="0.49439999"
         id="stop587" />
      <stop
         style="stop-color:#ffffff;stop-opacity:1;"
         offset="0.52249998"
         id="stop588" />
      <stop
         style="stop-color:#c2c2c2;stop-opacity:1;"
         offset="1.00000000"
         id="stop589" />
    </linearGradient>
    <path
       d="M 30.7 19.1 C 25.7 19.1 21.7 22.5 21.7 26.8 C 21.7 31 25.8 34.5 30.7 34.5 C 35.7 34.5 39.7 31.1 39.7 26.8 C 39.7 22.5 35.6 19.1 30.7 19.1 L 30.7 19.1 z M 30.8 29.4 C 29.2 29.4 27.9 28.3 27.9 26.9 C 27.9 25.5 29.2 24.4 30.8 24.4 C 32.4 24.4 33.7 25.5 33.7 26.9 C 33.7 28.3 32.4 29.4 30.8 29.4 L 30.8 29.4 z "
       style="fill:url(#aigrd7);stroke:none;"
       id="path590" />
    <linearGradient
       x1="29.9564991"
       y1="23.9745998"
       x2="31.7098999"
       y2="29.8190994"
       id="aigrd8"
       gradientUnits="userSpaceOnUse"
       spreadMethod="pad">
      <stop
         style="stop-color:#ffffff;stop-opacity:1;"
         offset="0.00000000"
         id="stop592" />
      <stop
         style="stop-color:#c2c2c2;stop-opacity:1;"
         offset="1.00000000"
         id="stop593" />
    </linearGradient>
    <path
       d="M 30.8 23 C 28.2 23 26 24.8 26 26.9 C 26 29.1 28.1 30.8 30.8 30.8 C 33.5 30.8 35.6 29 35.6 26.9 C 35.6 24.7 33.5 23 30.8 23 z M 30.8 28.9 C 29.3 28.9 28.1 28 28.1 26.8 C 28.1 25.7 29.3 24.7 30.8 24.7 C 32.3 24.7 33.5 25.6 33.5 26.8 C 33.5 27.9 32.3 28.9 30.8 28.9 z "
       style="opacity:0.79;fill:url(#aigrd8);stroke:none;"
       id="path594" />
    <path
       d="M 32.6 25.5 C 31.1 24.4 29.2 25.3 28.8 25.7 C 28.4 26.1 28.1 26.9 28.5 27.9 C 27.7 26.8 28.1 26 28.6 25.5 C 29.4 24.7 31.4 24.4 32.6 25.5 z "
       style="fill:#afafaf;stroke:none;"
       id="path595" />
    <path
       d="M 29.1 28.4 C 30.6 29.5 32.4 28.7 32.9 28.1 C 33.3 27.6 33.5 27 33.1 26.1 C 33.9 27.2 33.4 28 33 28.4 C 32.5 28.9 30.5 29.6 29.1 28.5 L 29.1 28.4 z "
       style="fill:#ffffff;stroke:none;"
       id="path596" />
    <path
       d="M 20.5 16.6 L 42.8 16.6 L 42.8 38.2 L 20.5 38.2 L 20.5 16.6 z "
       style="fill:none;stroke:none;"
       id="path597" />
  </g>
  <g
     style="font-size:12;stroke:#000000;"
     id="Layer_x0020_2" />
</svg>
