/* XPM */
static char * test_xpm[] = {
"48 48 21 1",
" 	c None",
".	c #000100",
"+	c #3E76AE",
"@	c #46769C",
"#	c #5689B4",
"$	c #508AC9",
"%	c #678DA2",
"&	c #75AAEB",
"*	c #7BADD8",
"=	c #A4ACAB",
"-	c #99B4C6",
";	c #9DC8F1",
">	c #BED0D8",
",	c #CFCBD3",
"'	c #CED0CC",
")	c #DFE7E6",
"!	c #E5E8DD",
"~	c #EAE5E9",
"{	c #FCFF48",
"]	c #F7F8ED",
"^	c #F7F8F9",
"{{{{{{......{{{{{{]]]]]]^^^^^^^^^^^^^^^^^^^^^^))",
"{{{{{{......{{{{{{]]^]]]^^^^^^^^^^^^^]^^^^^^^^)>",
"{{{{{{......{{{{{{]^^^^^^^^^^^^^^^^]^^]^^^^^^^'=",
"{{{{{{......{{{{{{]]^^^^^^^^^^^^^^])]^^^^^^^)',=",
"{{{{{{......{{{{{{]^^^^^^~]^]^^^^]!!]^~~~~]]!'==",
"{{{{{{......{{{{{{^^^^^^~^^]^]^^)^]))^~^~~)!,,,=",
"......{{{{{{......^^^^)>>>>>>>)>>>>>>>;>>>>>>''=",
"......{{{{{{......^^^^-%##$#+#########%###@%%='=",
"......{{{{{{......^)])-@++++++++++++++@@@++@@=!=",
"......{{{{{{......^^]]-@++++$$$+$$$$$$$#$$$+%='=",
"......{{{{{{......]]!]-@++$$$$&$$$$&$$$##$$$%''=",
"......{{{{{{......]]])-@++$$&#**#*&&*******%%=>=",
"{{{{{{......{{{{{{]]])-@+$$$&***-%%*-%-%%*%-=>>=",
"{{{{{{......{{{{{{]^^~-++$$$&&-;>)>>>>>>>>>!=',=",
"{{{{{{......{{{{{{^^^~-++$$&&**)))]]])^^)!!!!'>=",
"{{{{{{......{{{{{{^^^~-@+$#$&**)]))))~^)))'''''=",
"{{{{{{......{{{{{{^^~^;@$$$$&&*))~^)^~~!!!)'',==",
"{{{{{{......{{{{{{]^^^-@$$$&&&*)~~~~)]!!!),~,,,=",
"......{{{{{{......]]]^-@$$&$&&;)~~~)]]!]))~>,,,=",
"......{{{{{{......]]^^-@+$**&*-))))!)))))>>>,,,=",
"......{{{{{{......^^^^-@#$**&;->---%%%%%###%>'==",
"......{{{{{{......^^~^-@+#*&&*;;*&*##+@+#@@@>',=",
"......{{{{{{......^^^^-##$*&&&;;*&&&$$$++#@%->'=",
"......{{{{{{......^^^)-@##&;;&;;;&&*&#&$$$*#>',=",
"{{{{{{......{{{{{{]]]]-@$#*;;;;;;&&****&&&**>,-=",
"{{{{{{......{{{{{{]!]]-@$$*;;;*;;***********>,,=",
"{{{{{{......{{{{{{]]!)-#$#*;;;;>>;;>>->;;;,;,,'=",
"{{{{{{......{{{{{{]]]^-@$#*;;;>)^))>))>~~~^^~,,=",
"{{{{{{......{{{{{{]^^^-++#**;;>))^)))>))>^~~,'==",
"{{{{{{......{{{{{{^^]^-@#$*;;;>))~~))~)])))~'~,=",
"......{{{{{{......^^^^-+$#**&;))]~~))')!]!!!~,>=",
"......{{{{{{......^^^^-@+#*;;;>)^^~))~)!!!!'~>~=",
"......{{{{{{......]]]^-#$#**&;>)))^^~)))!))),'>=",
"......{{{{{{......]]^^-@+#&;&;>))~))^^~'~~~~)''>",
"......{{{{{{......]]]^-+$#*&;;-!!)~!!!^~~~'!~''=",
"......{{{{{{......]^]^-@##*;*;>!]!'~'!~)~~~''''=",
"{{{{{{......{{{{{{^^~^>@##**;*;)]!!~,~~)~~~'~''=",
"{{{{{{......{{{{{{]^])-@$$&&;;-)!!)~)''~')~''''=",
"{{{{{{......{{{{{{]^^^-+$$&*&;*>!!!~~~)~~!~'''==",
"{{{{{{......{{{{{{]]^^-@$$&&&;;)'!'))!~')'~',',=",
"{{{{{{......{{{{{{^]]^-@@#**;--)!!~~~)!~~)~','>=",
"{{{{{{......{{{{{{]^]!'%%%=>->>)~~~>~~'~~!)'',,=",
"......{{{{{{......^^]]!!)))))!!!',~),~''~'~''',=",
"......{{{{{{......^^]]!)>''!'!'),,,''''~''~~',>=",
"......{{{{{{......^^~]))>>,,''''~,,)'~',~'',',,-",
"......{{{{{{......^^~,,>,,,=,''',,'=,=,''',',,,=",
"......{{{{{{......]~~,='>,-,==,===,====,='='=,,,",
"......{{{{{{......!,=====%======%==============="};
